<?xml version="1.0" encoding="utf-8"?>
<!DOCTYPE svg PUBLIC "-//W3C//DTD SVG 1.1//EN" "http://www.w3.org/Graphics/SVG/1.1/DTD/svg11.dtd">
<svg version="1.1" xmlns="http://www.w3.org/2000/svg" xmlns:xlink="http://www.w3.org/1999/xlink">
    <symbol viewBox="0 0 382 382" id="in">
        <path d="M347.445,0H34.555C15.471,0,0,15.471,0,34.555v312.889C0,366.529,15.471,382,34.555,382h312.889
            C366.529,382,382,366.529,382,347.444V34.555C382,15.471,366.529,0,347.445,0z M118.207,329.844c0,5.554-4.502,10.056-10.056,10.056
            H65.345c-5.554,0-10.056-4.502-10.056-10.056V150.403c0-5.554,4.502-10.056,10.056-10.056h42.806
            c5.554,0,10.056,4.502,10.056,10.056V329.844z M86.748,123.432c-22.459,0-40.666-18.207-40.666-40.666S64.289,42.1,86.748,42.1
            s40.666,18.207,40.666,40.666S109.208,123.432,86.748,123.432z M341.91,330.654c0,5.106-4.14,9.246-9.246,9.246H286.73
            c-5.106,0-9.246-4.14-9.246-9.246v-84.168c0-12.556,3.683-55.021-32.813-55.021c-28.309,0-34.051,29.066-35.204,42.11v97.079
            c0,5.106-4.139,9.246-9.246,9.246h-44.426c-5.106,0-9.246-4.14-9.246-9.246V149.593c0-5.106,4.14-9.246,9.246-9.246h44.426
            c5.106,0,9.246,4.14,9.246,9.246v15.655c10.497-15.753,26.097-27.912,59.312-27.912c73.552,0,73.131,68.716,73.131,106.472
            L341.91,330.654L341.91,330.654z"/>
    </symbol>
    <symbol viewBox="0 0 438.536 438.536" id="github">
        <g>
            <g>
                <path d="M158.173,352.599c-3.049,0.568-4.381,1.999-3.999,4.281c0.38,2.283,2.093,3.046,5.138,2.283
                    c3.049-0.76,4.38-2.095,3.997-3.997C162.931,353.074,161.218,352.216,158.173,352.599z"/>
                <path d="M141.898,354.885c-3.046,0-4.568,1.041-4.568,3.139c0,2.474,1.619,3.518,4.853,3.138c3.046,0,4.57-1.047,4.57-3.138
                    C146.753,355.553,145.134,354.502,141.898,354.885z"/>
                <path d="M119.629,354.022c-0.76,2.095,0.478,3.519,3.711,4.284c2.855,1.137,4.664,0.568,5.424-1.714
                    c0.572-2.091-0.666-3.61-3.711-4.568C122.197,351.265,120.39,351.922,119.629,354.022z"/>
                <path d="M414.41,24.123C398.326,8.042,378.964,0,356.309,0H82.225C59.577,0,40.208,8.042,24.123,24.123
                    C8.042,40.207,0,59.576,0,82.225v274.088c0,22.65,8.042,42.017,24.123,58.098c16.084,16.084,35.454,24.126,58.102,24.126h63.953
                    c4.184,0,7.327-0.144,9.42-0.424c2.092-0.288,4.184-1.526,6.279-3.717c2.096-2.187,3.14-5.376,3.14-9.562
                    c0-0.568-0.05-7.046-0.144-19.417c-0.097-12.375-0.144-22.176-0.144-29.41l-6.567,1.143c-4.187,0.76-9.469,1.095-15.846,0.999
                    c-6.374-0.096-12.99-0.76-19.841-1.998c-6.855-1.239-13.229-4.093-19.13-8.562c-5.898-4.477-10.085-10.328-12.56-17.559
                    l-2.856-6.571c-1.903-4.373-4.899-9.229-8.992-14.554c-4.093-5.332-8.232-8.949-12.419-10.852l-1.999-1.428
                    c-1.331-0.951-2.568-2.098-3.711-3.429c-1.141-1.335-1.997-2.669-2.568-3.997c-0.571-1.335-0.097-2.43,1.427-3.289
                    c1.524-0.855,4.281-1.279,8.28-1.279l5.708,0.855c3.808,0.76,8.516,3.042,14.134,6.851c5.614,3.806,10.229,8.754,13.846,14.843
                    c4.38,7.806,9.657,13.75,15.846,17.843c6.184,4.097,12.419,6.143,18.699,6.143s11.704-0.476,16.274-1.424
                    c4.565-0.954,8.848-2.385,12.847-4.288c1.713-12.751,6.377-22.559,13.988-29.41c-10.848-1.143-20.602-2.854-29.265-5.14
                    c-8.658-2.286-17.605-5.995-26.835-11.136c-9.234-5.14-16.894-11.512-22.985-19.13c-6.09-7.618-11.088-17.61-14.987-29.978
                    c-3.901-12.375-5.852-26.652-5.852-42.829c0-23.029,7.521-42.637,22.557-58.814c-7.044-17.32-6.379-36.732,1.997-58.242
                    c5.52-1.714,13.706-0.428,24.554,3.855c10.85,4.286,18.794,7.951,23.84,10.992c5.046,3.042,9.089,5.614,12.135,7.71
                    c17.705-4.949,35.976-7.423,54.818-7.423c18.841,0,37.115,2.474,54.821,7.423l10.849-6.852c7.426-4.57,16.18-8.757,26.269-12.562
                    c10.088-3.806,17.795-4.854,23.127-3.14c8.562,21.51,9.328,40.922,2.279,58.241c15.036,16.179,22.559,35.786,22.559,58.815
                    c0,16.18-1.951,30.505-5.852,42.969c-3.898,12.467-8.939,22.463-15.13,29.981c-6.184,7.519-13.894,13.843-23.124,18.986
                    c-9.232,5.137-18.178,8.853-26.84,11.132c-8.661,2.286-18.414,4.004-29.263,5.147c9.891,8.562,14.839,22.072,14.839,40.538v68.238
                    c0,3.237,0.472,5.852,1.424,7.851c0.958,1.998,2.478,3.374,4.571,4.141c2.102,0.76,3.949,1.235,5.571,1.424
                    c1.622,0.191,3.949,0.287,6.995,0.287h63.953c22.648,0,42.018-8.042,58.095-24.126c16.084-16.084,24.126-35.454,24.126-58.102
                    V82.225C438.533,59.576,430.491,40.204,414.41,24.123z"/>
                <path d="M86.793,319.195c-1.331,0.948-1.141,2.471,0.572,4.565c1.906,1.902,3.427,2.189,4.57,0.855
                    c1.331-0.948,1.141-2.471-0.575-4.569C89.458,318.336,87.936,318.049,86.793,319.195z"/>
                <path d="M77.374,312.057c-0.57,1.335,0.096,2.478,1.999,3.426c1.521,0.955,2.762,0.767,3.711-0.568
                    c0.57-1.335-0.096-2.478-1.999-3.433C79.182,310.91,77.945,311.102,77.374,312.057z"/>
                <path d="M95.646,330.331c-1.715,0.948-1.715,2.666,0,5.137c1.713,2.478,3.328,3.142,4.853,1.998c1.714-1.334,1.714-3.142,0-5.427
                    C98.978,329.571,97.359,328.993,95.646,330.331z"/>
                <path d="M105.641,343.174c-1.714,1.526-1.336,3.327,1.142,5.428c2.281,2.279,4.185,2.566,5.708,0.849
                    c1.524-1.519,1.143-3.326-1.142-5.42C109.068,341.751,107.164,341.463,105.641,343.174z"/>
            </g>
        </g>
    </symbol>
    <symbol viewBox="0 0 126 72" id="vk">
        <path class="socials__icon" d="M124.523,64.503c-0.152-0.328-0.293-0.597-0.426-0.816
            c-2.172-3.91-6.324-8.711-12.449-14.401l-0.129-0.134l-0.066-0.063l-0.066-0.066h-0.063c-2.781-2.651-4.543-4.434-5.281-5.344
            c-1.348-1.738-1.652-3.5-0.914-5.281c0.523-1.348,2.477-4.19,5.867-8.538c1.781-2.302,3.195-4.149,4.234-5.539
            c7.52-9.996,10.777-16.383,9.777-19.164l-0.387-0.649c-0.262-0.39-0.934-0.75-2.02-1.074c-1.086-0.327-2.477-0.383-4.172-0.163
            L99.656,3.398c-0.301-0.105-0.738-0.099-1.301,0.034c-0.566,0.13-0.852,0.195-0.852,0.195L97.18,3.793l-0.258,0.195
            c-0.219,0.129-0.457,0.354-0.719,0.683c-0.258,0.325-0.477,0.707-0.648,1.142c-2.047,5.258-4.367,10.145-6.977,14.663
            c-1.609,2.695-3.086,5.031-4.434,7.009c-1.348,1.976-2.477,3.434-3.387,4.366c-0.914,0.935-1.738,1.685-2.477,2.246
            c-0.742,0.567-1.305,0.806-1.695,0.72c-0.391-0.091-0.762-0.177-1.109-0.263c-0.609-0.39-1.098-0.922-1.465-1.597
            c-0.371-0.672-0.621-1.52-0.75-2.543c-0.129-1.021-0.207-1.899-0.23-2.637c-0.02-0.738-0.008-1.785,0.035-3.129
            c0.043-1.349,0.066-2.263,0.066-2.738c0-1.653,0.031-3.446,0.094-5.379c0.066-1.935,0.121-3.465,0.164-4.594
            c0.043-1.13,0.066-2.324,0.066-3.587c0-1.258-0.078-2.245-0.23-2.965c-0.148-0.715-0.379-1.41-0.684-2.086
            c-0.305-0.672-0.75-1.194-1.336-1.562c-0.586-0.371-1.313-0.664-2.18-0.883c-2.305-0.521-5.238-0.802-8.8-0.849
            c-8.082-0.086-13.274,0.438-15.579,1.567c-0.914,0.476-1.738,1.129-2.476,1.953c-0.781,0.957-0.891,1.479-0.328,1.565
            c2.609,0.392,4.453,1.325,5.543,2.802l0.39,0.784c0.305,0.563,0.61,1.563,0.911,2.996c0.304,1.435,0.5,3.021,0.585,4.758
            c0.219,3.173,0.219,5.888,0,8.149c-0.214,2.257-0.421,4.019-0.617,5.277c-0.195,1.262-0.488,2.28-0.879,3.065
            c-0.39,0.782-0.652,1.258-0.785,1.435c-0.129,0.172-0.238,0.28-0.324,0.323c-0.566,0.22-1.152,0.328-1.762,0.328
            c-0.605,0-1.344-0.304-2.215-0.914c-0.867-0.608-1.769-1.444-2.703-2.512c-0.933-1.062-1.988-2.55-3.164-4.464
            c-1.172-1.911-2.386-4.168-3.648-6.778l-1.043-1.89c-0.653-1.215-1.543-2.985-2.672-5.313c-1.129-2.323-2.129-4.569-2.996-6.745
            c-0.348-0.91-0.871-1.605-1.567-2.087l-0.324-0.194c-0.219-0.172-0.566-0.356-1.043-0.556c-0.48-0.194-0.976-0.336-1.5-0.422
            L4.172,3.265c-1.824,0-3.063,0.414-3.715,1.238L0.195,4.895C0.066,5.113,0,5.46,0,5.938c0,0.48,0.129,1.065,0.391,1.762
            C3,13.824,5.832,19.734,8.898,25.425c3.063,5.696,5.723,10.278,7.981,13.754c2.262,3.478,4.562,6.758,6.91,9.84
            c2.348,3.086,3.902,5.063,4.66,5.935c0.762,0.871,1.36,1.519,1.793,1.953l1.629,1.565c1.043,1.043,2.574,2.293,4.598,3.746
            c2.02,1.457,4.258,2.891,6.711,4.305c2.457,1.41,5.312,2.563,8.574,3.453c3.258,0.892,6.43,1.25,9.516,1.074h7.496
            c1.52-0.129,2.672-0.609,3.453-1.433l0.258-0.324c0.176-0.262,0.34-0.665,0.488-1.208c0.152-0.542,0.23-1.14,0.23-1.792
            c-0.043-1.868,0.098-3.551,0.422-5.051c0.324-1.496,0.695-2.625,1.109-3.388c0.414-0.762,0.879-1.401,1.402-1.922
            c0.52-0.522,0.891-0.836,1.109-0.944c0.215-0.11,0.387-0.185,0.52-0.231c1.043-0.347,2.27-0.007,3.684,1.012
            c1.41,1.024,2.734,2.281,3.977,3.781c1.238,1.5,2.727,3.184,4.461,5.051c1.742,1.867,3.262,3.258,4.563,4.172l1.305,0.781
            c0.871,0.524,2,1,3.391,1.435c1.391,0.437,2.605,0.547,3.648,0.327l16.688-0.262c1.648,0,2.934-0.272,3.844-0.815
            c0.914-0.544,1.453-1.142,1.629-1.789c0.176-0.653,0.184-1.392,0.035-2.22C124.824,65.406,124.672,64.828,124.523,64.503
            L124.523,64.503z M124.523,64.503"/>
    </symbol>
    <symbol viewBox="0 0 36.711 36.711" id="fb">
        <path class="socials__icon" d="M36.711,34.686c0,1.119-0.907,2.025-2.026,2.025H25.33V22.495h4.771l0.715-5.541H25.33v-3.537
    	c0-1.604,0.445-2.696,2.746-2.696l2.934-0.001V5.764c-0.508-0.067-2.249-0.219-4.275-0.219c-4.23,0-7.127,2.582-7.127,7.323v4.086
    	h-4.784v5.541h4.784v14.216H2.026C0.907,36.711,0,35.805,0,34.686V2.026C0,0.907,0.907,0,2.026,0h32.659
    	c1.119,0,2.026,0.907,2.026,2.026V34.686z"/>
    </symbol>
    <symbol viewBox="0 0 36.663 36.664" id="inst">
        <path class="socials__icon" d="M32.305,0H4.357C1.95,0,0,1.946,0,4.349v27.967c0,2.4,1.95,4.348,4.357,4.348h27.947
    	c2.407,0,4.358-1.947,4.358-4.348V4.349C36.663,1.946,34.712,0,32.305,0 M26.352,5.729c0-0.632,0.513-1.146,1.146-1.146h3.438
    	c0.632,0,1.145,0.514,1.145,1.146v3.438c0,0.633-0.513,1.146-1.145,1.146h-3.438c-0.633,0-1.146-0.513-1.146-1.146V5.729z
    	 M18.374,11.341c3.894,0,7.051,3.149,7.051,7.033c0,3.885-3.157,7.034-7.051,7.034s-7.051-3.148-7.051-7.034
    	C11.323,14.49,14.48,11.341,18.374,11.341 M33.226,32.08c0,0.633-0.513,1.146-1.146,1.146H4.583c-0.633,0-1.146-0.514-1.146-1.146
    	V14.895H8.02c-0.597,0.858-0.798,2.462-0.798,3.479c0,6.135,5.003,11.127,11.152,11.127s11.153-4.992,11.153-11.127
    	c0-1.018-0.145-2.596-0.885-3.479h4.583V32.08z"/>
    </symbol>
    <symbol viewBox="0 0 37.453 31.21" id="tw">
        <path class="socials__icon" d="M36.421,0.577c-1.486,0.902-3.129,1.558-4.884,1.909C30.14,0.956,28.142,0,25.93,0
    	c-4.24,0-7.682,3.528-7.682,7.879c0,0.618,0.066,1.217,0.198,1.794C12.061,9.344,6.399,6.211,2.607,1.438
    	c-0.662,1.168-1.04,2.522-1.04,3.966c0,2.731,1.356,5.144,3.418,6.557c-1.257-0.038-2.444-0.396-3.481-0.981v0.096
    	c0,3.819,2.648,7.004,6.167,7.725c-0.645,0.186-1.324,0.277-2.025,0.277c-0.495,0-0.979-0.047-1.447-0.139
    	c0.979,3.129,3.815,5.408,7.179,5.469c-2.63,2.115-5.944,3.375-9.544,3.375c-0.619,0-1.232-0.037-1.833-0.109
    	c3.4,2.232,7.441,3.537,11.778,3.537c14.136,0,21.863-12.004,21.863-22.417c0-0.343-0.006-0.685-0.021-1.021
    	c1.502-1.112,2.807-2.498,3.832-4.078c-1.376,0.626-2.857,1.05-4.412,1.24C34.629,3.961,35.847,2.417,36.421,0.577"/>
    </symbol>
    <symbol viewBox="0 0 14.988 14.988" id="close">
		<path d="M9.831,7.494l4.673-4.673c0.646-0.646,0.646-1.691,0-2.337
			c-0.646-0.645-1.691-0.645-2.337,0L7.494,5.157L2.82,0.483c-0.646-0.645-1.691-0.645-2.337,0c-0.645,0.646-0.645,1.691,0,2.337
			l4.673,4.673l-4.673,4.673c-0.645,0.646-0.645,1.691,0,2.337c0.646,0.646,1.691,0.646,2.337,0l4.673-4.673l4.673,4.673
			c0.646,0.646,1.691,0.646,2.337,0s0.646-1.691,0-2.337L9.831,7.494z"/>
	</symbol>
</svg>